<svg width="9" height="9" viewBox="0 0 9 9" fill="none" xmlns="http://www.w3.org/2000/svg">
<path fill-rule="evenodd" clip-rule="evenodd" d="M7.847 6.31043L7.9235 6.39993L7.962 6.50293L7.987 6.60293L8 6.71893L7.987 6.83393L7.962 6.94893L7.9235 7.03843L7.847 7.12793L7.053 7.93393L6.953 8.01193L6.8635 8.06193L6.7605 8.08843L6.6455 8.10143L6.5295 8.08843L6.4295 8.06193L6.3265 8.01193L6.237 7.93393L4.5105 6.18093L2.7825 7.93393L2.706 8.01193L2.603 8.06193L2.488 8.08843L2.372 8.10143L2.272 8.08843L2.157 8.06193L2.054 8.01193L1.9775 7.93393L1.1705 7.12793L1.107 7.03843L1.057 6.94893L1.019 6.83393L1.006 6.71893L1.013 6.60293L1.051 6.50293L1.101 6.39993L1.1645 6.31043L2.9055 4.54543L1.1645 2.79093L1.101 2.70243L1.051 2.59943L1.013 2.49693L1 2.38193L1.013 2.26693L1.051 2.16393L1.101 2.07443L1.1645 1.97443L1.9715 1.16743L2.048 1.09093L2.151 1.04093L2.266 1.01593L2.366 1.00293L2.482 1.01593L2.597 1.04093L2.7 1.09093L2.7765 1.16743L4.5045 2.93343L6.231 1.16743L6.3205 1.09093L6.4235 1.04093L6.5235 1.01593L6.6395 1.00293L6.7545 1.01593L6.8575 1.04093L6.947 1.09093L7.047 1.16743L7.841 1.97443L7.9175 2.07443L7.956 2.16393L7.981 2.26693L7.994 2.38193L7.981 2.49693L7.956 2.59993L7.9175 2.70293L7.841 2.79143L6.1 4.54593L7.847 6.31043Z" fill="#DB3B2B"/>
</svg>
