<?xml version="1.0" encoding="UTF-8" standalone="no"?>
<svg
   xmlns:dc="http://purl.org/dc/elements/1.1/"
   xmlns:cc="http://creativecommons.org/ns#"
   xmlns:rdf="http://www.w3.org/1999/02/22-rdf-syntax-ns#"
   xmlns:svg="http://www.w3.org/2000/svg"
   xmlns="http://www.w3.org/2000/svg"
   xmlns:sodipodi="http://sodipodi.sourceforge.net/DTD/sodipodi-0.dtd"
   xmlns:inkscape="http://www.inkscape.org/namespaces/inkscape"
   width="19.295"
   height="20.239"
   viewBox="0 0 19.295001 20.239001"
   version="1.1"
   id="svg26"
   sodipodi:docname="Reference.svg"
   inkscape:version="0.92.4 (5da689c313, 2019-01-14)">
  <metadata
     id="metadata30">
    <rdf:RDF>
      <cc:Work
         rdf:about="">
        <dc:format>image/svg+xml</dc:format>
        <dc:type
           rdf:resource="http://purl.org/dc/dcmitype/StillImage" />
        <dc:title></dc:title>
      </cc:Work>
    </rdf:RDF>
  </metadata>
  <sodipodi:namedview
     pagecolor="#ffffff"
     bordercolor="#666666"
     borderopacity="1"
     objecttolerance="10"
     gridtolerance="10"
     guidetolerance="10"
     inkscape:pageopacity="0"
     inkscape:pageshadow="2"
     inkscape:window-width="1633"
     inkscape:window-height="1006"
     id="namedview28"
     showgrid="false"
     fit-margin-top="2"
     fit-margin-left="2"
     fit-margin-bottom="2"
     fit-margin-right="2"
     inkscape:zoom="6.9764694"
     inkscape:cx="1.8164991"
     inkscape:cy="-3.5599987"
     inkscape:window-x="1089"
     inkscape:window-y="623"
     inkscape:window-maximized="0"
     inkscape:current-layer="Reference" />
  <defs
     id="defs13">
    <filter
       id="Path_2202"
       x="-0.0037346829"
       y="-0.0035430882"
       width="1.0074694"
       height="1.0070862"
       filterUnits="userSpaceOnUse">
      <feOffset
         dy="3"
         input="SourceAlpha"
         id="feOffset2" />
      <feFlood
         flood-opacity="0.329"
         id="feFlood6" />
      <feComposite
         operator="in"
         in2="blur"
         id="feComposite8"
         result="result1" />
      <feComposite
         in="SourceGraphic"
         in2="result1"
         id="feComposite10" />
    </filter>
  </defs>
  <g
     id="Reference"
     transform="translate(2,1.518)">
    <g
       id="Group_2004"
       data-name="Group 2004"
       transform="translate(0.027)">
      <path
         id="Path_2570"
         data-name="Path 2570"
         d="m 285.629,183.044 0.056,0.057 0.043,0.085 0.029,0.085 0.015,0.072 -0.015,0.085 -0.029,0.085 -0.043,0.072 -0.056,0.057 -3.341,3.4 -0.072,0.057 -0.057,0.042 -0.085,0.029 -0.085,0.013 -0.072,-0.013 -0.085,-0.029 -0.07,-0.042 -0.057,-0.057 -0.057,-0.057 -0.043,-0.07 -0.028,-0.085 v -1.778 H 279.5 l -0.27,0.015 -0.27,0.013 -0.513,0.057 -0.5,0.1 -0.242,0.057 -0.227,0.057 -0.2,0.085 -0.214,0.085 -0.17,0.085 -0.171,0.114 -0.17,0.127 -0.17,0.142 -0.157,0.142 -0.128,0.157 -0.129,0.185 -0.113,0.185 -0.086,0.2 -0.1,0.214 -0.072,0.242 -0.057,0.255 -0.057,0.271 -0.028,0.3 -0.028,0.314 v 0.724 l 0.013,0.2 0.015,0.229 v 0.056 l 0.015,0.029 v 0.057 l 0.013,0.113 v 0.072 l -0.013,0.085 -0.042,0.085 -0.072,0.042 -0.028,0.015 -0.042,0.015 -0.057,-0.015 -0.043,-0.015 -0.057,-0.042 -0.029,-0.057 -0.043,-0.07 -0.043,-0.072 -0.042,-0.085 -0.057,-0.127 -0.043,-0.085 v -0.029 l -0.013,-0.028 -0.2,-0.469 -0.171,-0.426 -0.142,-0.428 -0.113,-0.382 -0.086,-0.356 -0.07,-0.341 -0.042,-0.312 -0.015,-0.3 0.015,-0.312 0.015,-0.314 0.028,-0.3 0.043,-0.284 0.028,-0.27 0.072,-0.242 0.072,-0.242 0.085,-0.242 0.142,-0.312 0.17,-0.314 0.2,-0.284 0.227,-0.27 0.271,-0.227 0.284,-0.227 0.327,-0.2 0.341,-0.171 0.369,-0.17 0.4,-0.127 0.441,-0.114 0.456,-0.085 0.482,-0.085 0.513,-0.057 0.526,-0.029 0.582,-0.013 h 1.465 v -1.786 l 0.028,-0.085 0.043,-0.072 0.057,-0.056 0.057,-0.057 0.07,-0.042 0.085,-0.029 h 0.157 l 0.085,0.029 0.057,0.042 0.072,0.057 z"
         transform="translate(-274.027,-179.518)"
         inkscape:connector-curvature="0"
         style="fill:#e38a24;fill-rule:evenodd;stroke:#9e5003;stroke-width:1" />
    </g>
  </g>
</svg>
