<svg width="17" height="17" viewBox="0 0 17 17" fill="none" xmlns="http://www.w3.org/2000/svg">
<path fill-rule="evenodd" clip-rule="evenodd" d="M12.918 9.65401H11.748L11.606 9.63L11.49 9.58501L11.372 9.51601L11.256 9.44701L11.162 9.33101L11.092 9.21701L11.068 9.08L11.046 8.964V7.588L11.068 7.474L11.092 7.334L11.162 7.22L11.256 7.104L11.372 7.035L11.49 6.966L11.606 6.92101L11.748 6.897H12.918L12.8 6.62201L12.684 6.32201L12.59 6.071L12.426 5.817L12.286 5.54201L12.098 5.312L11.888 5.103L11.7 4.873L11.49 4.66701L11.232 4.461L11.022 4.3L10.74 4.13901L10.506 3.978L10.25 3.886L9.95001 3.772L9.668 3.65601V4.96701L9.62201 5.10501L9.552 5.19701L9.48201 5.313L9.36401 5.403L9.248 5.474L9.106 5.519H7.464L7.34801 5.474L7.20801 5.403L7.09001 5.313L7.02 5.19701L6.974 5.10501L6.92601 4.96701L6.90201 4.83V3.65601L6.62201 3.772L6.34201 3.886L6.084 3.978L5.826 4.13901L5.56801 4.3L5.334 4.461L5.078 4.66701L4.86601 4.873L4.68001 5.103L4.47 5.312L4.28201 5.54201L4.14201 5.817L3.97801 6.071L3.86 6.32201L3.76601 6.62201L3.65001 6.897H4.84401L4.98401 6.92101L5.10001 6.966L5.218 7.035L5.334 7.104L5.42801 7.22L5.47601 7.334L5.498 7.474L5.522 7.588V8.968L5.498 9.084L5.47601 9.22101L5.42801 9.33501L5.334 9.451L5.218 9.52L5.10001 9.589L4.98401 9.634L4.84401 9.658H3.65001L3.76601 9.935L3.86 10.235L3.97801 10.486L4.14201 10.74L4.28201 10.994L4.47 11.224L4.68001 11.454L4.86601 11.684L5.078 11.89L5.334 12.099L5.56801 12.258L5.826 12.419L6.084 12.58L6.34201 12.672L6.62201 12.788L6.90201 12.902V11.728L6.92601 11.591L6.974 11.453L7.02 11.361L7.09001 11.247L7.20801 11.155L7.34801 11.086L7.464 11.039H9.10201L9.244 11.086L9.36 11.155L9.47801 11.247L9.548 11.361L9.61801 11.453L9.664 11.591V12.902L9.946 12.788L10.246 12.672L10.502 12.58L10.736 12.419L11.018 12.258L11.228 12.099L11.486 11.89L11.696 11.684L11.884 11.454L12.094 11.224L12.282 10.994L12.422 10.74L12.586 10.486L12.68 10.235L12.796 9.935L12.918 9.65401ZM16.568 7.584V8.964L16.544 9.08L16.522 9.21701L16.452 9.33101L16.358 9.44701L16.264 9.51601L16.148 9.58501L16.006 9.63L15.89 9.65401H14.322L14.228 10.069L14.088 10.482L13.9 10.873L13.714 11.264L13.502 11.631L13.246 11.977L12.964 12.323L12.684 12.643L12.332 12.965L12.004 13.219L11.654 13.473L11.28 13.703L10.904 13.886L10.504 14.047L10.084 14.185L9.662 14.301V15.98L9.61601 16.117L9.54601 16.209L9.47601 16.325L9.358 16.415L9.242 16.484L9.10001 16.531L8.98401 16.555H7.584L7.466 16.531L7.35001 16.484L7.21001 16.415L7.09201 16.325L7.022 16.209L6.97601 16.117L6.92801 15.98L6.90401 15.842V14.301L6.48401 14.185L6.06201 14.047L5.662 13.886L5.28801 13.703L4.914 13.473L4.56201 13.219L4.23401 12.965L3.884 12.643L3.604 12.323L3.32201 11.977L3.06401 11.631L2.854 11.264L2.668 10.873L2.50401 10.482L2.34001 10.069L2.246 9.65401H0.678009L0.560013 9.63L0.444 9.58501L0.304001 9.51601L0.234009 9.44701L0.139999 9.33101L0.0700073 9.21701L0.0220032 9.08L0 8.964V7.588L0.0220032 7.474L0.0700073 7.334L0.139999 7.22L0.234009 7.104L0.304001 7.035L0.444 6.966L0.560013 6.92101L0.678009 6.897H2.246L2.34001 6.48201L2.50401 6.069L2.668 5.65401L2.854 5.287L3.06401 4.92L3.32201 4.57401L3.604 4.23001L3.884 3.908L4.23401 3.586L4.56201 3.332L4.914 3.08101L5.28801 2.851L5.662 2.666L6.06201 2.481L6.48401 2.367L6.90401 2.25101V0.710007L6.92801 0.572006L6.97601 0.434998L7.022 0.343002L7.09201 0.229004L7.21001 0.137009L7.35001 0.0680084L7.466 0.0209961L7.584 0H8.98401L9.10001 0.0209961L9.242 0.0680084L9.358 0.137009L9.47601 0.229004L9.54601 0.343002L9.61601 0.434998L9.662 0.572006V2.25101L10.084 2.367L10.504 2.481L10.904 2.666L11.28 2.851L11.654 3.08101L12.004 3.332L12.332 3.586L12.684 3.908L12.964 4.23001L13.246 4.57401L13.502 4.92L13.714 5.287L13.9 5.65401L14.088 6.069L14.228 6.48201L14.322 6.897H15.894L16.01 6.92101L16.152 6.966L16.268 7.035L16.362 7.104L16.456 7.22L16.526 7.334L16.548 7.474L16.568 7.584Z" fill="#FFFFFF"/>
</svg>
