<svg width="20" height="20" viewBox="0 0 20 20" fill="none" xmlns="http://www.w3.org/2000/svg">
<path fill-rule="evenodd" clip-rule="evenodd" d="M16.5 9.80115C16.5 11.5956 15.7667 13.2188 14.584 14.392L15.8525 15.6488C16.1675 15.9627 15.9445 16.4994 15.499 16.4994L11.5 16.4994C11.2239 16.4994 11 16.2746 11 15.9994L11 11.9994C11.0003 11.5558 11.4947 11.3334 11.8096 11.6469L13.165 12.9877C13.9888 12.1748 14.5 11.0477 14.5 9.80115C14.4998 7.8063 13.1928 6.11593 11.3857 5.53357C11.1635 5.46197 11.0002 5.26214 11 5.02869L11 3.98279C11 3.67635 11.2738 3.44047 11.5713 3.51404C14.4018 4.21439 16.4998 6.76353 16.5 9.80115Z" fill="#E2E2E2"/>
<path fill-rule="evenodd" clip-rule="evenodd" d="M3.5 10.1989C3.5 8.4044 4.23329 6.7812 5.41602 5.60803L4.14746 4.3512C3.83249 4.03728 4.05554 3.50063 4.50098 3.50061L8.5 3.50061C8.77614 3.50061 9 3.7254 9 4.00061L9 8.00061C8.99973 8.44419 8.50534 8.66658 8.19043 8.35315L6.83496 7.01233C6.01124 7.82515 5.5 8.95231 5.5 10.1989C5.50017 12.1937 6.8072 13.8841 8.61426 14.4664C8.83651 14.538 8.99979 14.7379 9 14.9713L9 16.0172C9 16.3236 8.72617 16.5595 8.42871 16.486C5.59816 15.7856 3.50017 13.2365 3.5 10.1989Z" fill="#C6C6C6"/>
</svg>
