<svg width="18" height="18" viewBox="0 0 18 18" fill="none" xmlns="http://www.w3.org/2000/svg">
<path d="M13.7828 10.554C14.2929 10.7198 14.5788 11.2727 14.333 11.7494C13.9056 12.5784 13.2885 13.3006 12.5267 13.8541C11.5016 14.5989 10.2671 15 9 15C7.73292 15 6.49837 14.5989 5.47329 13.8541C4.71147 13.3006 4.09441 12.5784 3.66699 11.7494C3.42124 11.2727 3.70713 10.7198 4.21716 10.554V10.554C4.7272 10.3883 5.26596 10.6768 5.54785 11.133C5.82372 11.5794 6.18524 11.9708 6.6148 12.2829C7.30809 12.7866 8.14305 13.0579 9 13.0579C9.85695 13.0579 10.6919 12.7866 11.3852 12.2829C11.8148 11.9708 12.1763 11.5795 12.4521 11.133C12.734 10.6768 13.2728 10.3883 13.7828 10.554V10.554Z" fill="#D9D9D9"/>
<rect x="8" y="3" width="2" height="11" rx="1" fill="#D9D9D9"/>
<rect x="5" y="7" width="2" height="8" rx="1" transform="rotate(-90 5 7)" fill="#D9D9D9"/>
</svg>
