<svg width="18" height="18" viewBox="0 0 18 18" fill="none" xmlns="http://www.w3.org/2000/svg">
<path fill-rule="evenodd" clip-rule="evenodd" d="M13.2506 8.994L13.2332 8.67861L13.2 8.37866L13.1493 8.08041L13.0812 7.79759L12.9799 7.51479L12.8611 7.23197L12.7249 6.96628L12.5554 6.70061L6.68733 12.5566L6.95982 12.7229L7.23056 12.8566L7.5013 12.9903L7.78951 13.076L8.09519 13.1617L8.38341 13.2114L8.68733 13.244L9.01047 13.2611L9.41571 13.2285L9.85763 13.1617L10.2471 13.0623L10.6541 12.9114L11.0262 12.728L11.3651 12.5121L11.7039 12.2807L11.9921 12.0133L12.2629 11.715L12.5179 11.3825L12.7205 11.0157L12.9074 10.6506L13.0594 10.2512L13.1607 9.85187L13.2131 9.42336L13.2506 8.994ZM5.44977 11.308L11.3511 5.45022L11.0803 5.28395L10.7921 5.13484L10.5039 5.01828L10.2157 4.91887L9.9275 4.83316L9.62358 4.78345L9.33537 4.73375H8.72402L8.43581 4.76632L8.16506 4.81603L7.87685 4.88287L7.62183 4.96857L7.36856 5.05428L7.11353 5.17084L6.87598 5.30452L6.63843 5.45364L6.41834 5.60277L6.18078 5.80331L5.99563 5.96957L5.80874 6.1684L5.62183 6.40151L5.46987 6.61748L5.3179 6.85059L5.19912 7.09913L5.08034 7.34938L4.97903 7.61505L4.8917 7.86531L4.82358 8.16354L4.7904 8.43093L4.7572 8.71204L4.73973 8.99485L4.7572 9.29482L4.7904 9.59477L4.84105 9.89302L4.92838 10.193L5.01572 10.4758L5.15195 10.7586L5.28646 11.0414L5.44977 11.308ZM14.5231 6.66462L14.6244 6.93029L14.7258 7.21311L14.8131 7.51306L14.8812 7.79588L14.9319 8.09584L14.9668 8.39408L14.9825 8.69404L15 8.99229L14.9825 9.29224L14.9668 9.57506L14.9319 9.87502L14.8812 10.1733L14.8131 10.4561L14.7258 10.756L14.6244 11.0389L14.5231 11.3045L14.3869 11.5873L14.2681 11.853L14.1161 12.1187L13.9624 12.3518L13.793 12.5849L13.6236 12.818L13.4384 13.0169L13.2515 13.2328L13.0489 13.4334L12.8113 13.5996L12.5913 13.7985L12.3694 13.9476L12.1162 14.1138L11.8786 14.2475L11.6079 14.3812L11.3371 14.4978L11.0646 14.6126L10.7782 14.7138L10.4899 14.7995L10.2017 14.8663L9.91353 14.9331L9.60785 14.9657L9.31964 14.9829L9.01572 15L8.71004 14.9829L8.40437 14.9657L8.10043 14.9331L7.81222 14.8663L7.52401 14.7995L7.2358 14.7138L6.96506 14.6126L6.67685 14.4978L6.40611 14.3812L6.13362 14.2475L5.88034 14.1138L5.62532 13.9476L5.40524 13.7985L5.18515 13.5996L4.96506 13.4334L4.76244 13.2328L4.57555 13.0169L4.38864 12.818L4.20174 12.5849L4.04978 12.3518L3.88035 12.1187L3.7441 11.853L3.60961 11.5873L3.49083 11.3045L3.37205 11.0389L3.27074 10.756L3.20262 10.4561L3.13449 10.1733L3.06637 9.87502L3.03318 9.57506L3.01571 9.29224L3 8.99229L3.01571 8.69404L3.03318 8.39408L3.06637 8.09584L3.13449 7.79588L3.20262 7.51306L3.27074 7.21311L3.37205 6.93029L3.49083 6.66462L3.60961 6.3818L3.7441 6.13326L3.88035 5.86758L4.04978 5.61734L4.20174 5.38423L4.38864 5.16826L4.57555 4.95229L4.76244 4.73632L4.96506 4.55292L5.18515 4.36951L5.40524 4.18783L5.62532 4.03699L5.88034 3.87073L6.13362 3.73875L6.40611 3.58792L6.67685 3.47308L6.96506 3.35652L7.2358 3.27081L7.52401 3.18512L7.81222 3.09941L8.10043 3.04971L8.40437 3.01714L8.71004 3H9.32139L9.6096 3.01714L9.91528 3.04971L10.2035 3.09941L10.4917 3.18512L10.7799 3.27081L11.0664 3.35652L11.3389 3.47308L11.6096 3.58792L11.8803 3.73875L12.1179 3.87073L12.3712 4.03699L12.593 4.18783L12.8131 4.36951L13.0507 4.55292L13.2533 4.73632L13.4402 4.95229L13.6253 5.16826L13.7948 5.38423L13.9642 5.61734L14.1179 5.86758L14.2699 6.13326L14.3886 6.3818L14.5231 6.66462Z" fill="#D8D8D8"/>
</svg>
