<svg width="18" height="18" viewBox="0 0 18 18" fill="none" xmlns="http://www.w3.org/2000/svg">
<path d="M9 1C12.357 1 15.229 3.06862 16.416 6H14.1953C13.1578 4.20707 11.2205 3 9 3C5.68629 3 3 5.68629 3 9C3 12.3137 5.68629 15 9 15C11.2205 15 13.1578 13.7929 14.1953 12H16.416C15.229 14.9314 12.357 17 9 17C4.58172 17 1 13.4183 1 9C1 4.58172 4.58172 1 9 1Z" fill="#1FA18D" fill-opacity="0.3"/>
<path d="M9 5.5C10.5855 5.5 11.9242 6.55434 12.3545 8H17V10H12.3545C11.9242 11.4457 10.5855 12.5 9 12.5C7.067 12.5 5.5 10.933 5.5 9C5.5 7.067 7.067 5.5 9 5.5Z" fill="#D8D8D8" fill-opacity="0.3"/>
<path fill-rule="evenodd" clip-rule="evenodd" d="M9.5422 11.995L9.52765 11.7322L9.5 11.4822L9.45777 11.2337L9.401 10.998L9.31658 10.7623L9.21761 10.5266L9.10407 10.3052L8.96287 10.0838L4.07278 14.9639L4.29985 15.1024L4.52547 15.2138L4.75108 15.3252L4.99126 15.3967L5.246 15.4681L5.48617 15.5095L5.73944 15.5366L6.00872 15.5509L6.34643 15.5238L6.71469 15.4681L7.03929 15.3852L7.37845 15.2595L7.68849 15.1067L7.97088 14.9267L8.25326 14.7339L8.49345 14.5111L8.71907 14.2625L8.93158 13.9854L9.10043 13.6798L9.25619 13.3755L9.38281 13.0427L9.46724 12.7099L9.5109 12.3528L9.5422 11.995ZM3.04148 13.9233L7.95924 9.04185L7.73362 8.90329L7.49344 8.77903L7.25327 8.6819L7.01309 8.59906L6.77292 8.52763L6.51965 8.48621L6.27947 8.44479H5.77001L5.52984 8.47194L5.30422 8.51336L5.06404 8.56906L4.85152 8.64048L4.64046 8.7119L4.42794 8.80903L4.22999 8.92044L4.03202 9.0447L3.84862 9.16898L3.65065 9.33609L3.49635 9.47464L3.34061 9.64033L3.18486 9.83459L3.05823 10.0146L2.93158 10.2088L2.8326 10.4159L2.73362 10.6245L2.64919 10.8459L2.57642 11.0544L2.51965 11.303L2.492 11.5258L2.46433 11.76L2.44977 11.9957L2.46433 12.2457L2.492 12.4956L2.53421 12.7442L2.60698 12.9941L2.67977 13.2298L2.7933 13.4655L2.90538 13.7012L3.04148 13.9233ZM10.6026 10.0539L10.687 10.2752L10.7715 10.5109L10.8442 10.7609L10.901 10.9966L10.9432 11.2465L10.9723 11.4951L10.9854 11.745L11 11.9936L10.9854 12.2435L10.9723 12.4792L10.9432 12.7292L10.901 12.9777L10.8442 13.2134L10.7715 13.4634L10.687 13.699L10.6026 13.9204L10.4891 14.1561L10.3901 14.3775L10.2634 14.5989L10.1354 14.7932L9.99416 14.9874L9.85297 15.1817L9.69869 15.3474L9.54293 15.5274L9.37408 15.6945L9.17612 15.833L8.99273 15.9987L8.80784 16.123L8.5968 16.2615L8.39883 16.3729L8.17322 16.4844L7.9476 16.5815L7.72052 16.6772L7.4818 16.7615L7.24162 16.8329L7.00145 16.8886L6.76128 16.9443L6.50654 16.9714L6.26637 16.9857L6.0131 17L5.75836 16.9857L5.50364 16.9714L5.25036 16.9443L5.01018 16.8886L4.77001 16.8329L4.52983 16.7615L4.30421 16.6772L4.06404 16.5815L3.83842 16.4844L3.61135 16.3729L3.40028 16.2615L3.18777 16.123L3.00436 15.9987L2.82096 15.833L2.63755 15.6945L2.4687 15.5274L2.31295 15.3474L2.1572 15.1817L2.00145 14.9874L1.87481 14.7932L1.73362 14.5989L1.62008 14.3775L1.508 14.1561L1.40902 13.9204L1.31004 13.699L1.22562 13.4634L1.16885 13.2134L1.11208 12.9777L1.0553 12.7292L1.02765 12.4792L1.01309 12.2435L1 11.9936L1.01309 11.745L1.02765 11.4951L1.0553 11.2465L1.11208 10.9966L1.16885 10.7609L1.22562 10.5109L1.31004 10.2752L1.40902 10.0539L1.508 9.81817L1.62008 9.61105L1.73362 9.38965L1.87481 9.18112L2.00145 8.98686L2.1572 8.80688L2.31295 8.62691L2.4687 8.44694L2.63755 8.2941L2.82096 8.14126L3.00436 7.98986L3.18777 7.86416L3.40028 7.7256L3.61135 7.61563L3.83842 7.48993L4.06404 7.39423L4.30421 7.2971L4.52983 7.22568L4.77001 7.15427L5.01018 7.08284L5.25036 7.04142L5.50364 7.01429L5.75836 7H6.26782L6.508 7.01429L6.76273 7.04142L7.00291 7.08284L7.24309 7.15427L7.48325 7.22568L7.72198 7.2971L7.94904 7.39423L8.17466 7.48993L8.40028 7.61563L8.59824 7.7256L8.80931 7.86416L8.99417 7.98986L9.17759 8.14126L9.37555 8.2941L9.5444 8.44694L9.70014 8.62691L9.85444 8.80688L9.99563 8.98686L10.1368 9.18112L10.2649 9.38965L10.3916 9.61105L10.4905 9.81817L10.6026 10.0539Z" fill="#CB6A6A"/>
</svg>
