<svg width="18" height="18" viewBox="0 0 18 18" fill="none" xmlns="http://www.w3.org/2000/svg">
<path fill-rule="evenodd" clip-rule="evenodd" d="M16.7939 14.5C16.3797 15.2175 15.4623 15.4633 14.7449 15.0491L9 11.7322C9 11.7322 10.0858 9.85154 10.5 9.13411L16.2449 12.451C16.9623 12.8652 17.2081 13.7826 16.7939 14.5Z" fill="#AA6060" fill-opacity="0.3"/>
<path fill-rule="evenodd" clip-rule="evenodd" d="M1.20117 14.5C1.61539 15.2174 2.53277 15.4632 3.25021 15.049C3.25021 15.049 8.28256 12.1542 9 11.74C9 11.74 8 10 7.48496 9.14L1.75021 12.451C1.03277 12.8652 0.786958 13.7826 1.20117 14.5Z" fill="#30A3BE" fill-opacity="0.3"/>
<path fill-rule="evenodd" clip-rule="evenodd" d="M9 0C9.82843 0 10.5 0.671573 10.5 1.5V9.14L9 11.74L7.5 9.14V1.5C7.5 0.671573 8.17157 0 9 0Z" fill="#71A376" fill-opacity="0.3"/>
<path fill-rule="evenodd" clip-rule="evenodd" d="M8.5422 10.995L8.52765 10.7322L8.5 10.4822L8.45777 10.2337L8.401 9.99799L8.31658 9.76232L8.21761 9.52664L8.10407 9.30524L7.96287 9.08384L3.07278 13.9639L3.29985 14.1024L3.52547 14.2138L3.75108 14.3252L3.99126 14.3967L4.246 14.4681L4.48617 14.5095L4.73944 14.5366L5.00872 14.5509L5.34643 14.5238L5.71469 14.4681L6.03929 14.3852L6.37845 14.2595L6.68849 14.1067L6.97088 13.9267L7.25326 13.7339L7.49345 13.5111L7.71907 13.2625L7.93158 12.9854L8.10043 12.6798L8.25619 12.3755L8.38281 12.0427L8.46724 11.7099L8.5109 11.3528L8.5422 10.995ZM2.04148 12.9233L6.95924 8.04185L6.73362 7.90329L6.49344 7.77903L6.25327 7.6819L6.01309 7.59906L5.77292 7.52763L5.51965 7.48621L5.27947 7.44479H4.77001L4.52984 7.47194L4.30422 7.51336L4.06404 7.56906L3.85152 7.64048L3.64046 7.7119L3.42794 7.80903L3.22999 7.92044L3.03202 8.0447L2.84862 8.16898L2.65065 8.33609L2.49635 8.47464L2.34061 8.64033L2.18486 8.83459L2.05823 9.01456L1.93158 9.20882L1.8326 9.41594L1.73362 9.62448L1.64919 9.84588L1.57642 10.0544L1.51965 10.303L1.492 10.5258L1.46433 10.76L1.44977 10.9957L1.46433 11.2457L1.492 11.4956L1.53421 11.7442L1.60698 11.9941L1.67977 12.2298L1.7933 12.4655L1.90538 12.7012L2.04148 12.9233ZM9.6026 9.05385L9.68703 9.27525L9.77147 9.51093L9.84424 9.76089L9.90101 9.99657L9.94323 10.2465L9.97235 10.4951L9.98543 10.745L10 10.9936L9.98543 11.2435L9.97235 11.4792L9.94323 11.7292L9.90101 11.9777L9.84424 12.2134L9.77147 12.4634L9.68703 12.699L9.6026 12.9204L9.48909 13.1561L9.39009 13.3775L9.26345 13.5989L9.13536 13.7932L8.99416 13.9874L8.85297 14.1817L8.69869 14.3474L8.54293 14.5274L8.37408 14.6945L8.17612 14.833L7.99273 14.9987L7.80784 15.123L7.5968 15.2615L7.39883 15.3729L7.17322 15.4844L6.9476 15.5815L6.72052 15.6772L6.4818 15.7615L6.24162 15.8329L6.00145 15.8886L5.76128 15.9443L5.50654 15.9714L5.26637 15.9857L5.0131 16L4.75836 15.9857L4.50364 15.9714L4.25036 15.9443L4.01018 15.8886L3.77001 15.8329L3.52983 15.7615L3.30421 15.6772L3.06404 15.5815L2.83842 15.4844L2.61135 15.3729L2.40028 15.2615L2.18777 15.123L2.00436 14.9987L1.82096 14.833L1.63755 14.6945L1.4687 14.5274L1.31295 14.3474L1.1572 14.1817L1.00145 13.9874L0.874815 13.7932L0.733621 13.5989L0.62008 13.3775L0.508004 13.1561L0.409022 12.9204L0.31004 12.699L0.225617 12.4634L0.168846 12.2134L0.112075 11.9777L0.0553048 11.7292L0.0276524 11.4792L0.0130932 11.2435L0 10.9936L0.0130932 10.745L0.0276524 10.4951L0.0553048 10.2465L0.112075 9.99657L0.168846 9.76089L0.225617 9.51093L0.31004 9.27525L0.409022 9.05385L0.508004 8.81817L0.62008 8.61105L0.733621 8.38965L0.874815 8.18112L1.00145 7.98686L1.1572 7.80688L1.31295 7.62691L1.4687 7.44694L1.63755 7.2941L1.82096 7.14126L2.00436 6.98986L2.18777 6.86416L2.40028 6.7256L2.61135 6.61563L2.83842 6.48993L3.06404 6.39423L3.30421 6.2971L3.52983 6.22568L3.77001 6.15427L4.01018 6.08284L4.25036 6.04142L4.50364 6.01429L4.75836 6H5.26782L5.508 6.01429L5.76273 6.04142L6.00291 6.08284L6.24309 6.15427L6.48325 6.22568L6.72198 6.2971L6.94904 6.39423L7.17466 6.48993L7.40028 6.61563L7.59824 6.7256L7.80931 6.86416L7.99417 6.98986L8.17759 7.14126L8.37555 7.2941L8.5444 7.44694L8.70014 7.62691L8.85444 7.80688L8.99563 7.98686L9.13682 8.18112L9.26491 8.38965L9.39156 8.61105L9.49053 8.81817L9.6026 9.05385Z" fill="#CB6A6A"/>
</svg>
