<?xml version="1.0" encoding="UTF-8" standalone="no"?>
<svg
   xmlns:dc="http://purl.org/dc/elements/1.1/"
   xmlns:cc="http://creativecommons.org/ns#"
   xmlns:rdf="http://www.w3.org/1999/02/22-rdf-syntax-ns#"
   xmlns:svg="http://www.w3.org/2000/svg"
   xmlns="http://www.w3.org/2000/svg"
   xmlns:sodipodi="http://sodipodi.sourceforge.net/DTD/sodipodi-0.dtd"
   xmlns:inkscape="http://www.inkscape.org/namespaces/inkscape"
   sodipodi:docname="drag.svg"
   inkscape:version="1.0 (4035a4fb49, 2020-05-01)"
   id="svg838"
   version="1.1"
   viewBox="0 0 4.1970797 6.5003719"
   height="6.5003719mm"
   width="4.1970797mm">
  <defs
     id="defs832" />
  <sodipodi:namedview
     inkscape:window-maximized="1"
     inkscape:window-y="-12"
     inkscape:window-x="-12"
     inkscape:window-height="2068"
     inkscape:window-width="5120"
     fit-margin-bottom="0.25"
     fit-margin-right="0.25"
     fit-margin-left="0.25"
     fit-margin-top="0.25"
     lock-margins="true"
     showgrid="false"
     inkscape:document-rotation="0"
     inkscape:current-layer="layer1"
     inkscape:document-units="mm"
     inkscape:cy="14.222224"
     inkscape:cx="17.83743"
     inkscape:zoom="22.4"
     inkscape:pageshadow="2"
     inkscape:pageopacity="0.0"
     borderopacity="1.0"
     bordercolor="#666666"
     pagecolor="#ffffff"
     id="base" />
  <metadata
     id="metadata835">
    <rdf:RDF>
      <cc:Work
         rdf:about="">
        <dc:format>image/svg+xml</dc:format>
        <dc:type
           rdf:resource="http://purl.org/dc/dcmitype/StillImage" />
        <dc:title></dc:title>
      </cc:Work>
    </rdf:RDF>
  </metadata>
  <g
     transform="translate(-40.028088,-83.507164)"
     id="layer1"
     inkscape:groupmode="layer"
     inkscape:label="Layer 1">
    <path
       transform="matrix(0.26458333,0,0,0.26458333,40.028088,83.507164)"
       d="M 2.953125 0.9453125 C 1.8401789 0.9453125 0.9453125 1.8401789 0.9453125 2.953125 L 0.9453125 21.615234 C 0.9453125 22.728181 1.8401789 23.623047 2.953125 23.623047 C 4.0660711 23.623047 4.9628906 22.728181 4.9628906 21.615234 L 4.9628906 2.953125 C 4.9628906 1.8401789 4.0660711 0.9453125 2.953125 0.9453125 z M 7.9082031 0.9453125 C 6.795257 0.9453125 5.9003906 1.8401789 5.9003906 2.953125 L 5.9003906 21.615234 C 5.9003906 22.728181 6.795257 23.623047 7.9082031 23.623047 C 9.021153 23.623047 9.9179688 22.728181 9.9179688 21.615234 L 9.9179688 2.953125 C 9.9179688 1.8401789 9.021153 0.9453125 7.9082031 0.9453125 z M 12.908203 0.9453125 C 11.795257 0.9453125 10.900391 1.8401789 10.900391 2.953125 L 10.900391 21.615234 C 10.900391 22.728181 11.795257 23.623047 12.908203 23.623047 C 14.021149 23.623047 14.917969 22.728181 14.917969 21.615234 L 14.917969 2.953125 C 14.917969 1.8401789 14.021149 0.9453125 12.908203 0.9453125 z "
       style="fill:#ffffff;stroke-width:0.755906"
       id="rect1415" />
  </g>
</svg>
