<svg xmlns="http://www.w3.org/2000/svg" width="11.615" height="13.767" viewBox="0 0 11.615 13.767">
  <path id="Docs" d="M436.593,87.19l.115.115.115.164h-3.582V83.838l.164.1.1.115Zm-3.6,1.25h4.123v8.132l-.017.13-.032.149-.066.115-.1.13-.1.083-.13.066-.132.032-.147.017H426.228l-.149-.017-.13-.032-.132-.066L425.7,97.1l-.1-.13-.049-.115-.032-.149-.017-.13V84.265l.017-.147.032-.13.049-.115.1-.132.115-.1.132-.049.13-.049.149-.017h6.062v4.189l.015.13.034.149.049.115.1.115.115.1.115.066.147.032Zm1.216,5.668v-.493l-.017-.115-.049-.066-.083-.049-.081-.017h-5.322l-.115.017-.083.049-.049.066-.017.115v.493l.017.1.049.081.083.034.049.015h5.388l.081-.015.083-.034.049-.081Zm0-1.973v-.493l-.017-.1-.049-.066-.083-.064-.081-.017h-5.322l-.066.017h-.049l-.083.064-.049.066-.017.1v.493l.017.1.049.081.083.049h.049l.066.017h5.322l.081-.017.083-.049.049-.081Zm0-1.971V89.67l-.017-.1-.049-.066-.083-.049-.081-.017h-5.388l-.049.017-.083.049-.049.066-.017.1v.493l.017.115.049.083.083.032.115.017h5.322l.081-.017.083-.032.049-.083Z" transform="translate(-425.504 -83.527)" fill="#FFFFFF" fill-rule="evenodd"/>
</svg>
