<?xml version="1.0" encoding="UTF-8" standalone="no"?>
<svg
   xmlns:dc="http://purl.org/dc/elements/1.1/"
   xmlns:cc="http://creativecommons.org/ns#"
   xmlns:rdf="http://www.w3.org/1999/02/22-rdf-syntax-ns#"
   xmlns:svg="http://www.w3.org/2000/svg"
   xmlns="http://www.w3.org/2000/svg"
   xmlns:sodipodi="http://sodipodi.sourceforge.net/DTD/sodipodi-0.dtd"
   xmlns:inkscape="http://www.inkscape.org/namespaces/inkscape"
   width="121.541"
   height="123.438"
   viewBox="0 0 121.541 123.438"
   version="1.1"
   id="svg3"
   sodipodi:docname="Minus.svg"
   inkscape:version="0.92.4 (5da689c313, 2019-01-14)">
  <metadata
     id="metadata9">
    <rdf:RDF>
      <cc:Work
         rdf:about="">
        <dc:format>image/svg+xml</dc:format>
        <dc:type
           rdf:resource="http://purl.org/dc/dcmitype/StillImage" />
        <dc:title></dc:title>
      </cc:Work>
    </rdf:RDF>
  </metadata>
  <defs
     id="defs7" />
  <sodipodi:namedview
     pagecolor="#ffffff"
     bordercolor="#666666"
     borderopacity="1"
     objecttolerance="10"
     gridtolerance="10"
     guidetolerance="10"
     inkscape:pageopacity="0"
     inkscape:pageshadow="2"
     inkscape:window-width="2220"
     inkscape:window-height="1253"
     id="namedview5"
     showgrid="false"
     inkscape:zoom="1.9118909"
     inkscape:cx="60.7705"
     inkscape:cy="61.719002"
     inkscape:window-x="1426"
     inkscape:window-y="365"
     inkscape:window-maximized="0"
     inkscape:current-layer="svg3" />
  <path
     id="Minus"
     d="M310.86,151.585V141.1l-.177-.868-.336-1.028-.514-.851-.691-.691-.691-.691-.851-.514-1.045-.337H233.849l-1.028.337-.691.514-.868.691-.691.691-.514.851-.337,1.028v12.386l.337.85.514.868.691.868.868.514.691.514,1.028.337h72.705l1.045-.337.851-.514.691-.514.691-.868.514-.868.336-.85Zm20.112-43.84v79.6l-.337,2.233-.514,2.055-.691,2.233-1.045,1.9-1.187,1.9-1.2,1.878-1.719,1.719-1.559,1.559-1.878,1.542-1.9,1.2-1.9.868-2.233.673-2.055.691-2.233.354H229.9l-2.25-.354-2.055-.691-2.233-.673-1.9-.868-1.878-1.2-1.9-1.542-1.559-1.559-1.542-1.719-1.365-1.878-1.2-1.9-.868-1.9-.85-2.233-.514-2.055-.354-2.233V105.336l.354-2.233.514-2.055.85-2.073.868-2.056,1.2-1.9,1.365-1.719,1.542-1.9,1.559-1.542,1.9-1.542,1.878-1.046,1.9-1.028,2.233-.691,2.055-.673,2.25-.177h80.626l2.233.177,2.055.673,2.233.691,1.9,1.028,1.9,1.046,1.878,1.542,1.559,1.542,1.719,1.9,1.2,1.719,1.187,1.9,1.045,2.056.691,2.073.514,2.055.337,2.233Z"
     transform="translate(-209.432 -84.71)"
     fill="#6f787a"
     fill-rule="evenodd"
     style="fill:#ffffff;fill-opacity:1" />
</svg>
