<?xml version="1.0" encoding="UTF-8" standalone="no"?>
<svg
   xmlns:dc="http://purl.org/dc/elements/1.1/"
   xmlns:cc="http://creativecommons.org/ns#"
   xmlns:rdf="http://www.w3.org/1999/02/22-rdf-syntax-ns#"
   xmlns:svg="http://www.w3.org/2000/svg"
   xmlns="http://www.w3.org/2000/svg"
   xmlns:sodipodi="http://sodipodi.sourceforge.net/DTD/sodipodi-0.dtd"
   xmlns:inkscape="http://www.inkscape.org/namespaces/inkscape"
   width="17.7743"
   height="19.219999"
   viewBox="0 0 17.7743 19.219999"
   version="1.1"
   id="svg10"
   sodipodi:docname="Reference.svg"
   inkscape:version="0.92.4 (5da689c313, 2019-01-14)">
  <metadata
     id="metadata16">
    <rdf:RDF>
      <cc:Work
         rdf:about="">
        <dc:format>image/svg+xml</dc:format>
        <dc:type
           rdf:resource="http://purl.org/dc/dcmitype/StillImage" />
        <dc:title></dc:title>
      </cc:Work>
    </rdf:RDF>
  </metadata>
  <defs
     id="defs14" />
  <sodipodi:namedview
     pagecolor="#ffffff"
     bordercolor="#666666"
     borderopacity="1"
     objecttolerance="10"
     gridtolerance="10"
     guidetolerance="10"
     inkscape:pageopacity="0"
     inkscape:pageshadow="2"
     inkscape:window-width="1064"
     inkscape:window-height="737"
     id="namedview12"
     showgrid="false"
     fit-margin-top="0.25"
     fit-margin-left="0.25"
     fit-margin-bottom="1"
     fit-margin-right="1"
     inkscape:zoom="13.131538"
     inkscape:cx="9.5196006"
     inkscape:cy="10.984"
     inkscape:window-x="2091"
     inkscape:window-y="864"
     inkscape:window-maximized="0"
     inkscape:current-layer="Reference" />
  <g
     id="Reference"
     transform="translate(-47.5207,-92.019)">
    <path
       id="reference-2"
       data-name="reference"
       d="m 285.629,183.044 0.056,0.057 0.043,0.085 0.029,0.085 0.015,0.072 -0.015,0.085 -0.029,0.085 -0.043,0.072 -0.056,0.057 -3.341,3.4 -0.072,0.057 -0.057,0.042 -0.085,0.029 -0.085,0.013 -0.072,-0.013 -0.085,-0.029 -0.07,-0.042 -0.057,-0.057 -0.057,-0.057 -0.043,-0.07 -0.028,-0.085 v -1.778 H 279.5 l -0.27,0.015 -0.27,0.013 -0.513,0.057 -0.5,0.1 -0.242,0.057 -0.227,0.057 -0.2,0.085 -0.214,0.085 -0.17,0.085 -0.171,0.114 -0.17,0.127 -0.17,0.142 -0.157,0.142 -0.128,0.157 -0.129,0.185 -0.113,0.185 -0.086,0.2 -0.1,0.214 -0.072,0.242 -0.057,0.255 -0.057,0.271 -0.028,0.3 -0.028,0.314 v 0.724 l 0.013,0.2 0.015,0.229 v 0.056 l 0.015,0.029 v 0.057 l 0.013,0.113 v 0.072 l -0.013,0.085 -0.042,0.085 -0.072,0.042 -0.028,0.015 -0.042,0.015 -0.057,-0.015 -0.043,-0.015 -0.057,-0.042 -0.029,-0.057 -0.043,-0.07 -0.043,-0.072 -0.042,-0.085 -0.057,-0.127 -0.043,-0.085 v -0.029 l -0.013,-0.028 -0.2,-0.469 -0.171,-0.426 -0.142,-0.428 -0.113,-0.382 -0.086,-0.356 -0.07,-0.341 -0.042,-0.312 -0.015,-0.3 0.015,-0.312 0.015,-0.314 0.028,-0.3 0.043,-0.284 0.028,-0.27 0.072,-0.242 0.072,-0.242 0.085,-0.242 0.142,-0.312 0.17,-0.314 0.2,-0.284 0.227,-0.27 0.271,-0.227 0.284,-0.227 0.327,-0.2 0.341,-0.171 0.369,-0.17 0.4,-0.127 0.441,-0.114 0.456,-0.085 0.482,-0.085 0.513,-0.057 0.526,-0.029 0.582,-0.013 h 1.465 v -1.786 l 0.028,-0.085 0.043,-0.072 0.057,-0.056 0.057,-0.057 0.07,-0.042 0.085,-0.029 h 0.157 l 0.085,0.029 0.057,0.042 0.072,0.057 z"
       transform="translate(-226,-87)"
       inkscape:connector-curvature="0"
       style="fill:#e38a24;fill-rule:evenodd;stroke:#9e5003;stroke-width:0.5" />
  </g>
</svg>
