<svg width="28" height="26" viewBox="0 0 28 26" fill="none" xmlns="http://www.w3.org/2000/svg">
<circle cx="13" cy="10" r="3" fill="#60676A"/>
<g filter="url(#filter0_d_2700_5162)">
<path d="M16.1183 6.33093C16.3291 5.96584 16.8006 5.83657 17.1294 6.10042C17.6113 6.4871 18.019 6.96116 18.3301 7.5C18.769 8.2601 19 9.12232 19 10C19 10.8777 18.769 11.7399 18.3301 12.5C18.019 13.0388 17.6113 13.5129 17.1294 13.8996C16.8006 14.1634 16.3291 14.0342 16.1183 13.6691V13.6691C15.9076 13.304 16.0403 12.8424 16.3507 12.5571C16.6091 12.3195 16.831 12.0432 17.008 11.7367C17.3129 11.2087 17.4734 10.6097 17.4734 10C17.4734 9.3903 17.3129 8.79134 17.008 8.26332C16.831 7.95681 16.6091 7.68048 16.3507 7.44294C16.0403 7.15763 15.9076 6.69602 16.1183 6.33093V6.33093Z" fill="#00B2CE"/>
<path d="M17.5786 3.80163C17.8113 3.39855 18.33 3.25699 18.7063 3.5308C19.609 4.18752 20.3669 5.02787 20.9282 6C21.6304 7.21615 22 8.59571 22 10C22 11.4043 21.6303 12.7838 20.9282 14C20.3669 14.9721 19.609 15.8125 18.7063 16.4692C18.33 16.743 17.8113 16.6014 17.5786 16.1984V16.1984C17.3459 15.7953 17.4883 15.2841 17.8569 14.9998C18.507 14.4983 19.0553 13.873 19.4685 13.1573C20.0228 12.1973 20.3145 11.1084 20.3145 10C20.3145 8.89157 20.0228 7.80267 19.4685 6.84274C19.0553 6.12698 18.507 5.50174 17.8569 5.00022C17.4883 4.71593 17.3459 4.20471 17.5786 3.80163V3.80163Z" fill="#00B2CE"/>
<path fill-rule="evenodd" clip-rule="evenodd" d="M8 3C6.89543 3 6 3.89543 6 5V15C6 16.1046 6.89543 17 8 17H13V15C10.2386 15 8 12.7614 8 10C8 7.23858 10.2386 5 13 5V3H8Z" fill="#4A5558"/>
</g>
<defs>
<filter id="filter0_d_2700_5162" x="0" y="0" width="28" height="26" filterUnits="userSpaceOnUse" color-interpolation-filters="sRGB">
<feFlood flood-opacity="0" result="BackgroundImageFix"/>
<feColorMatrix in="SourceAlpha" type="matrix" values="0 0 0 0 0 0 0 0 0 0 0 0 0 0 0 0 0 0 127 0" result="hardAlpha"/>
<feOffset dy="3"/>
<feGaussianBlur stdDeviation="3"/>
<feComposite in2="hardAlpha" operator="out"/>
<feColorMatrix type="matrix" values="0 0 0 0 0 0 0 0 0 0 0 0 0 0 0 0 0 0 0.329 0"/>
<feBlend mode="normal" in2="BackgroundImageFix" result="effect1_dropShadow_2700_5162"/>
<feBlend mode="normal" in="SourceGraphic" in2="effect1_dropShadow_2700_5162" result="shape"/>
</filter>
</defs>
</svg>
