<svg width="18" height="18" viewBox="0 0 18 18" fill="none" xmlns="http://www.w3.org/2000/svg">
<g clip-path="url(#clip0_396_8530)">
<path d="M17.7891 13L9.24316 15.7803C9.61674 15.0591 9.73362 14.2018 9.50684 13.3555C9.40063 12.9592 9.22753 12.5988 9.00391 12.2822L17.5645 11.9043L17.7891 13Z" fill="#C6C6C6"/>
<circle cx="6.26749" cy="14.4316" r="2.5" fill="#C6C6C6"/>
<path d="M5.80371 10.6836C5.64456 10.7015 5.48459 10.7317 5.3252 10.7744C4.48054 11.0008 3.80569 11.5428 3.38965 12.2383L2.15039 6.67578C2.55649 6.88102 3.01389 7 3.5 7C4.28889 7 5.00451 6.69319 5.54004 6.19531L5.80371 10.6836Z" fill="#C6C6C6"/>
<circle cx="3.5" cy="3.5" r="2.5" fill="#C6C6C6"/>
</g>
<path d="M16.9115 5.28407L11.8246 0.0883024C11.7823 0.0458716 11.7287 0.0171089 11.6705 0.00560857C11.6123 -0.00589179 11.5521 0.000378921 11.4974 0.0236376C11.4426 0.0468962 11.3958 0.0861131 11.3628 0.136388C11.3297 0.186662 11.3119 0.245768 11.3115 0.306322V3.08711H8V8.11832H11.3115V10.6947C11.3121 10.7552 11.3301 10.8141 11.3632 10.8643C11.3963 10.9144 11.4431 10.9534 11.4978 10.9766C11.5525 10.9997 11.6127 11.0059 11.6708 10.9943C11.7289 10.9828 11.7824 10.9541 11.8246 10.9117L16.9115 5.72011C16.9396 5.69149 16.9618 5.65751 16.977 5.6201C16.9922 5.58269 17 5.54259 17 5.50209C17 5.4616 16.9922 5.4215 16.977 5.38409C16.9618 5.34668 16.9396 5.31269 16.9115 5.28407Z" fill="#C6C6C6"/>
<defs>
<clipPath id="clip0_396_8530">
<rect width="16" height="16" fill="white" transform="translate(1 1)"/>
</clipPath>
</defs>
</svg>
