<svg width="14" height="25" viewBox="0 0 14 25" fill="none" xmlns="http://www.w3.org/2000/svg">
<rect width="14" height="25" rx="2" fill="#1F2124"/>
<rect width="14" height="25" rx="2" fill="#323434"/>
<path d="M6 5L6 20C6 20.5523 6.44772 21 7 21C7.55228 21 8 20.5523 8 20V5C8 4.44772 7.55228 4 7 4C6.44772 4 6 4.44772 6 5Z" fill="#474747"/>
<path d="M3 5L3 20C3 20.5523 3.44772 21 4 21C4.55228 21 5 20.5523 5 20V5C5 4.44772 4.55228 4 4 4C3.44772 4 3 4.44772 3 5Z" fill="#474747"/>
<path d="M9 5V20C9 20.5523 9.44772 21 10 21C10.5523 21 11 20.5523 11 20V5C11 4.44772 10.5523 4 10 4C9.44772 4 9 4.44772 9 5Z" fill="#474747"/>
</svg>
