<svg width="18" height="18" viewBox="0 0 18 18" fill="none" xmlns="http://www.w3.org/2000/svg">
<path d="M13.6338 10.3776H12.4638L12.3218 10.3536L12.2058 10.3086L12.0878 10.2396L11.9718 10.1706L11.8778 10.0546L11.8078 9.94064L11.7838 9.80363L11.7618 9.68764V8.31163L11.7838 8.19763L11.8078 8.05763L11.8778 7.94363L11.9718 7.82764L12.0878 7.75864L12.2058 7.68964L12.3218 7.64464L12.4638 7.62064H13.6338L13.5158 7.34564L13.3998 7.04564L13.3058 6.79463L13.1418 6.54063L13.0018 6.26564L12.8138 6.03563L12.6038 5.82663L12.4158 5.59663L12.2058 5.39064L11.9478 5.18463L11.7378 5.02364L11.4558 4.86264L11.2218 4.70163L10.9658 4.60963L10.6658 4.49564L10.3838 4.37964V5.69064L10.3378 5.82864L10.2678 5.92064L10.1978 6.03664L10.0798 6.12663L9.96382 6.19763L9.82182 6.24263H8.17982L8.06383 6.19763L7.92383 6.12663L7.80583 6.03664L7.73582 5.92064L7.68982 5.82864L7.64183 5.69064L7.61783 5.55363V4.37964L7.33783 4.49564L7.05783 4.60963L6.79982 4.70163L6.54182 4.86264L6.28383 5.02364L6.04982 5.18463L5.79382 5.39064L5.58183 5.59663L5.39583 5.82663L5.18582 6.03563L4.99783 6.26564L4.85783 6.54063L4.69383 6.79463L4.57582 7.04564L4.48183 7.34564L4.36583 7.62064H5.55983L5.69983 7.64464L5.81583 7.68964L5.93382 7.75864L6.04982 7.82764L6.14383 7.94363L6.19183 8.05763L6.21382 8.19763L6.23782 8.31163V9.69164L6.21382 9.80763L6.19183 9.94464L6.14383 10.0586L6.04982 10.1746L5.93382 10.2436L5.81583 10.3126L5.69983 10.3576L5.55983 10.3816H4.36583L4.48183 10.6586L4.57582 10.9586L4.69383 11.2096L4.85783 11.4636L4.99783 11.7176L5.18582 11.9476L5.39583 12.1776L5.58183 12.4076L5.79382 12.6136L6.04982 12.8226L6.28383 12.9816L6.54182 13.1426L6.79982 13.3036L7.05783 13.3956L7.33783 13.5116L7.61783 13.6256V12.4516L7.64183 12.3146L7.68982 12.1766L7.73582 12.0846L7.80583 11.9706L7.92383 11.8786L8.06383 11.8096L8.17982 11.7626H9.81783L9.95982 11.8096L10.0758 11.8786L10.1938 11.9706L10.2638 12.0846L10.3338 12.1766L10.3798 12.3146V13.6256L10.6618 13.5116L10.9618 13.3956L11.2178 13.3036L11.4518 13.1426L11.7338 12.9816L11.9438 12.8226L12.2018 12.6136L12.4118 12.4076L12.5998 12.1776L12.8098 11.9476L12.9978 11.7176L13.1378 11.4636L13.3018 11.2096L13.3958 10.9586L13.5118 10.6586L13.6338 10.3776ZM17.2838 8.30763V9.68764L17.2598 9.80363L17.2378 9.94064L17.1678 10.0546L17.0738 10.1706L16.9798 10.2396L16.8638 10.3086L16.7218 10.3536L16.6058 10.3776H15.0378L14.9438 10.7926L14.8038 11.2056L14.6158 11.5966L14.4298 11.9876L14.2178 12.3546L13.9618 12.7006L13.6798 13.0466L13.3998 13.3666L13.0478 13.6886L12.7198 13.9426L12.3698 14.1966L11.9958 14.4266L11.6198 14.6096L11.2198 14.7706L10.7998 14.9086L10.3778 15.0246V16.7036L10.3318 16.8406L10.2618 16.9326L10.1918 17.0486L10.0738 17.1386L9.95782 17.2076L9.81583 17.2546L9.69983 17.2786H8.29982L8.18182 17.2546L8.06583 17.2076L7.92583 17.1386L7.80783 17.0486L7.73782 16.9326L7.69183 16.8406L7.64383 16.7036L7.61983 16.5656V15.0246L7.19983 14.9086L6.77783 14.7706L6.37782 14.6096L6.00383 14.4266L5.62982 14.1966L5.27783 13.9426L4.94983 13.6886L4.59982 13.3666L4.31982 13.0466L4.03783 12.7006L3.77983 12.3546L3.56982 11.9876L3.38382 11.5966L3.21983 11.2056L3.05583 10.7926L2.96182 10.3776H1.39383L1.27583 10.3536L1.15982 10.3086L1.01982 10.2396L0.949829 10.1706L0.85582 10.0546L0.785828 9.94064L0.737823 9.80363L0.71582 9.68764V8.31163L0.737823 8.19763L0.785828 8.05763L0.85582 7.94363L0.949829 7.82764L1.01982 7.75864L1.15982 7.68964L1.27583 7.64464L1.39383 7.62064H2.96182L3.05583 7.20564L3.21983 6.79263L3.38382 6.37764L3.56982 6.01064L3.77983 5.64363L4.03783 5.29764L4.31982 4.95364L4.59982 4.63164L4.94983 4.30963L5.27783 4.05563L5.62982 3.80464L6.00383 3.57463L6.37782 3.38963L6.77783 3.20464L7.19983 3.09064L7.61983 2.97464V1.43364L7.64383 1.29564L7.69183 1.15863L7.73782 1.06664L7.80783 0.952637L7.92583 0.860641L8.06583 0.791641L8.18182 0.744629L8.29982 0.723633H9.69983L9.81583 0.744629L9.95782 0.791641L10.0738 0.860641L10.1918 0.952637L10.2618 1.06664L10.3318 1.15863L10.3778 1.29564V2.97464L10.7998 3.09064L11.2198 3.20464L11.6198 3.38963L11.9958 3.57463L12.3698 3.80464L12.7198 4.05563L13.0478 4.30963L13.3998 4.63164L13.6798 4.95364L13.9618 5.29764L14.2178 5.64363L14.4298 6.01064L14.6158 6.37764L14.8038 6.79263L14.9438 7.20564L15.0378 7.62064H16.6098L16.7258 7.64464L16.8678 7.68964L16.9838 7.75864L17.0778 7.82764L17.1718 7.94363L17.2418 8.05763L17.2638 8.19763L17.2838 8.30763Z" fill="#C6C6C6"/>
</svg>
